<svg xmlns="http://www.w3.org/2000/svg" version="1.1" xmlns:xlink="http://www.w3.org/1999/xlink" xmlns:svgjs="http://svgjs.dev/svgjs" width="1500" height="1500" viewBox="0 0 1500 1500"><rect width="1500" height="1500" fill="#000000"></rect><g transform="matrix(0.6666666666666666,0,0,0.6666666666666666,249.3971047737752,647.7209552645378)"><svg viewBox="0 0 396 81" data-background-color="#f6f9f4" preserveAspectRatio="xMidYMid meet" height="306" width="1500" xmlns="http://www.w3.org/2000/svg" xmlns:xlink="http://www.w3.org/1999/xlink"><g id="tight-bounds" transform="matrix(1,0,0,1,0.23907065407206574,0.11102175190504227)"><svg viewBox="0 0 395.52 80.77830569462468" height="80.77830569462468" width="395.52"><g><svg viewBox="0 0 492.8881458437976 100.66411134260476" height="80.77830569462468" width="395.52"><g><svg viewBox="0 0 395.52000000000004 100.66411134260476" height="100.66411134260476" width="395.52000000000004"><g id="textblocktransform"><svg viewBox="0 0 395.52000000000004 100.66411134260476" height="100.66411134260476" width="395.52000000000004" id="textblock"><g><svg viewBox="0 0 395.52000000000004 100.66411134260476" height="100.66411134260476" width="395.52000000000004"><g transform="matrix(1,0,0,1,0,0)"><svg width="395.52000000000004" viewBox="3.0201999999999973 -33.54201238452696 195.83029620981148 49.8409138190692" height="100.66411134260476" data-palette-color="#0f0e10"><path d="M20.625 5.975v0c-0.007 2.799-0.535 5.065-1.586 6.798-1.049 1.74-2.559 2.846-4.53 3.32v0c-2.321 0.557-4.515-0.016-6.584-1.72-2.062-1.706-3.697-4.289-4.905-7.749v0c0.458-0.521 1.001-1.001 1.629-1.44 0.627-0.445 1.355-0.853 2.185-1.224v0c1.299 3.411 2.443 5.748 3.432 7.012 0.983 1.266 2.087 1.751 3.312 1.457v0c1.42-0.341 2.243-1.536 2.471-3.586 0.22-2.055-0.143-5.05-1.088-8.984v0c-0.82-3.416-1.827-7.038-3.021-10.865-1.187-3.829-2.526-7.778-4.018-11.85v0c0.327-0.353 0.775-0.683 1.346-0.991 0.577-0.31 1.182-0.558 1.816-0.745v0c0.511-0.157 0.985-0.281 1.422-0.373 0.439-0.085 0.861-0.142 1.266-0.17v0c1.168 3.436 2.098 6.308 2.789 8.617 0.692 2.309 1.274 4.449 1.747 6.42v0c0.867 3.611 1.48 6.662 1.838 9.153 0.357 2.485 0.517 4.792 0.479 6.92zM35.465-29.57v0c3.695-0.618 6.752 0.3 9.171 2.754 2.412 2.456 4.056 6.3 4.931 11.534v0c0.401 2.393 0.521 4.83 0.362 7.311-0.159 2.48-0.589 4.739-1.29 6.776v0c-0.882 2.567-2.17 4.625-3.864 6.172-1.688 1.546-3.725 2.519-6.112 2.919v0c-3.505 0.587-6.582-0.558-9.233-3.433-2.65-2.869-4.407-6.887-5.272-12.055v0c-0.953-5.694-0.378-10.6 1.724-14.716 2.102-4.123 5.296-6.544 9.583-7.262zM38.817 4.028v0c2.551-0.427 4.298-2.206 5.241-5.338 0.935-3.137 1.008-7.06 0.22-11.768v0c-0.795-4.747-1.921-8.124-3.378-10.132-1.466-2.012-3.392-2.819-5.779-2.419v0c-2.393 0.401-4.111 2.111-5.154 5.131-1.044 3.014-1.193 6.746-0.448 11.198v0c0.706 4.221 1.902 7.587 3.586 10.096 1.684 2.51 3.588 3.587 5.712 3.232zM80.243-10.971v0c0.349 3.864-0.858 7.287-3.621 10.267-2.762 2.987-6.308 4.677-10.637 5.068v0c-1.321 0.119-2.659 0.056-4.013-0.189-1.354-0.246-2.571-0.638-3.651-1.177v0c-0.767-5.159-1.389-9.631-1.865-13.416-0.476-3.786-0.908-7.827-1.296-12.123v0c-0.03-0.332-0.133-1.397-0.309-3.195-0.183-1.804-0.318-3.368-0.404-4.693v0c1.425-0.825 2.941-1.494 4.548-2.007 1.6-0.513 3.244-0.845 4.93-0.998v0c3.731-0.337 6.677 0.113 8.837 1.35 2.16 1.237 3.355 3.131 3.586 5.681v0c0.155 1.713-0.146 3.27-0.903 4.67-0.757 1.4-1.968 2.628-3.634 3.682v0c2.518 0.234 4.505 0.962 5.961 2.182 1.462 1.22 2.286 2.853 2.471 4.898zM71.112-25.237v0c-0.158-1.753-0.86-3.038-2.106-3.856-1.239-0.819-2.947-1.129-5.125-0.933v0c-0.498 0.045-1.055 0.136-1.672 0.272-0.623 0.143-1.272 0.329-1.948 0.557v0c0.028 1.791 0.087 3.667 0.177 5.627 0.096 1.953 0.247 4.255 0.454 6.907v0c3.695-0.736 6.371-1.794 8.027-3.175 1.662-1.382 2.393-3.182 2.193-5.399zM62.578 0.325v0c0.648 0.203 1.276 0.343 1.885 0.422 0.603 0.079 1.203 0.092 1.801 0.038v0c2.576-0.233 4.714-1.356 6.413-3.371 1.705-2.022 2.447-4.254 2.226-6.698v0c-0.182-2.018-0.889-3.464-2.119-4.337-1.23-0.873-3.001-1.205-5.311-0.996v0c-0.896 0.081-1.912 0.29-3.046 0.627-1.134 0.337-2.213 0.735-3.236 1.196v0c0.062 0.691 0.124 1.374 0.186 2.052 0.061 0.677 0.123 1.364 0.186 2.061v0c0.113 1.255 0.243 2.508 0.39 3.76 0.147 1.252 0.355 3 0.625 5.246zM105.728 0.942v0c0.143 0.531 0.279 1.235 0.408 2.113 0.136 0.878 0.209 1.596 0.219 2.156v0c-3.219 0.092-6.186 0.262-8.902 0.512-2.716 0.249-5.829 0.656-9.339 1.22v0c-1.006-6.189-1.794-12.656-2.363-19.4-0.576-6.737-0.847-12.877-0.815-18.419v0c0.796-0.248 1.549-0.428 2.261-0.541 0.711-0.113 1.447-0.176 2.207-0.19v0c0.233-0.004 0.483-0.002 0.75 0.007 0.267 0.015 0.551 0.037 0.851 0.064v0c-0.167 1.823-0.273 3.872-0.318 6.147-0.039 2.274-0.028 5.055 0.031 8.341v0c0.147 4.411 0.354 8.082 0.62 11.01 0.267 2.936 0.625 5.76 1.075 8.472v0c2.186-0.44 4.436-0.787 6.752-1.043 2.316-0.262 4.503-0.412 6.563-0.449zM136.204 7.18v0c-0.722 0.359-1.504 0.647-2.344 0.865-0.847 0.218-1.855 0.373-3.022 0.465v0c-0.235-2.839-0.509-5.536-0.82-8.091-0.318-2.563-0.692-5.019-1.123-7.368v0c-2.349-0.137-4.586-0.194-6.712-0.171-2.132 0.029-4.101 0.121-5.906 0.276v0c-0.795 1.717-1.632 3.414-2.511 5.093-0.879 1.678-1.797 3.334-2.753 4.968v0c-0.922-0.214-1.744-0.552-2.466-1.015-0.721-0.456-1.344-0.997-1.868-1.622v0c3.146-4.939 5.799-9.829 7.957-14.671 2.159-4.843 4.371-11.001 6.637-18.475v0c1.09 0.097 2.011 0.207 2.766 0.331 0.761 0.124 1.515 0.309 2.261 0.553v0c2.843 5.982 5.021 11.976 6.535 17.981 1.506 6.005 2.63 12.965 3.369 20.881zM123.447-26.209v0c-0.911 3.032-1.815 5.821-2.712 8.366-0.896 2.539-1.824 4.942-2.784 7.21v0c1.764-0.131 3.505-0.213 5.223-0.246 1.712-0.034 3.363-0.018 4.955 0.049v0c-0.575-2.731-1.244-5.355-2.005-7.87-0.768-2.522-1.66-5.025-2.677-7.509zM146.674-9.783v0c-0.263 2.205-0.504 4.624-0.724 7.258-0.22 2.634-0.444 5.557-0.674 8.768v0c-0.584 0.09-1.285 0.13-2.105 0.121-0.819-0.009-1.589-0.062-2.309-0.159v0c0.361-7.687 0.76-14.286 1.198-19.797 0.439-5.517 0.987-10.724 1.645-15.62v0c0.071-0.024 0.134-0.043 0.189-0.055 0.048-0.007 0.091-0.025 0.128-0.054v0c0.917-0.314 1.827-0.528 2.73-0.642 0.897-0.115 1.915-0.16 3.055-0.134v0c2.487 4.417 4.6 8.791 6.339 13.121 1.744 4.338 3.279 9.058 4.605 14.16v0c0.153-0.888 0.308-1.866 0.465-2.934 0.163-1.061 0.395-2.712 0.696-4.952v0c0.588-4.374 1.021-8.173 1.3-11.398 0.285-3.224 0.41-5.827 0.373-7.81v0c1.127-0.178 2.136-0.275 3.026-0.289 0.89-0.015 1.783 0.021 2.679 0.107v0c-0.246 2.779-0.447 4.877-0.604 6.296-0.157 1.418-0.322 2.768-0.494 4.05v0c-0.662 4.929-1.344 9.398-2.044 13.408-0.707 4.008-1.525 8.092-2.454 12.252v0c-0.837 0.022-1.632 0.03-2.384 0.022-0.753 0-1.496-0.033-2.227-0.097v0c-1.667-6.016-3.365-11.248-5.094-15.699-1.729-4.45-3.636-8.503-5.721-12.16v0c-0.168 1.249-0.353 2.63-0.557 4.143-0.203 1.513-0.549 4.211-1.037 8.094zM198.38-7.78v0c-1.06 4.832-3.745 8.905-8.055 12.218-4.311 3.32-9.426 5.232-15.345 5.736v0c-0.488-0.107-1.23-0.321-2.224-0.641-1.001-0.322-1.719-0.582-2.153-0.78v0c0.786-5.295 1.528-9.879 2.228-13.752 0.699-3.873 1.443-7.607 2.231-11.202v0c0.284-1.296 0.598-2.647 0.94-4.053 0.341-1.399 0.656-2.678 0.944-3.836v0c1.786-0.427 3.506-0.644 5.159-0.65 1.648-0.014 3.348 0.171 5.1 0.555v0c4.604 1.01 7.853 2.92 9.748 5.732 1.895 2.811 2.371 6.369 1.427 10.673zM182.128-21.019v0c-0.932 3.16-1.743 6.126-2.432 8.896-0.695 2.762-1.547 6.445-2.556 11.048v0c-0.22 1.003-0.434 2.027-0.643 3.074-0.214 1.038-0.504 2.469-0.87 4.293v0c4.753-0.759 8.602-2.437 11.546-5.033 2.952-2.601 4.894-6.025 5.826-10.27v0c0.688-3.139 0.407-5.729-0.845-7.772-1.252-2.042-3.401-3.397-6.449-4.066v0c-0.514-0.113-1.059-0.181-1.634-0.205-0.575-0.024-1.222-0.012-1.942 0.035z" opacity="1" transform="matrix(1,0,0,1,0,0)" fill="#ffffff" class="wordmark-text-0" data-fill-palette-color="primary" id="text-0"></path></svg></g></svg></g></svg></g></svg></g><g transform="matrix(1,0,0,1,427.124087988993,9.613422633218754)"><svg viewBox="0 0 65.7640578548046 81.43726607616725" height="81.43726607616725" width="65.7640578548046"><g><svg xmlns="http://www.w3.org/2000/svg" xmlns:xlink="http://www.w3.org/1999/xlink" version="1.1" x="0" y="0" viewBox="7.167324870580825 1.25 49.66467512941917 61.50100062302386" enable-background="new 0 0 64 64" xml:space="preserve" height="81.43726607616725" width="65.7640578548046" class="icon-icon-0" data-fill-palette-color="accent" id="icon-0"><g fill="#0c0b0c" data-fill-palette-color="accent"><g fill="#0c0b0c" data-fill-palette-color="accent"><path d="M47.738 12.675C50.549 12.675 52.816 9.773 52.816 6.146S50.549 1.25 47.738 1.25 42.66 2.61 42.66 6.147 44.927 12.675 47.738 12.675" fill="#ffffff" data-fill-palette-color="accent"></path><path d="M52.633 62.75A2.48 2.48 0 0 0 55.114 60.269V34.72C55.114 34.654 55.151 34.593 55.21 34.563L55.234 34.551A2.92 2.92 0 0 0 56.832 31.948V18.324C56.832 17.287 56.34 16.304 55.489 15.712 54.792 15.227 52.899 14.836 51.337 14.836L48.822 22.261 48.403 17.425 49.333 16.025A0.81 0.81 0 0 0 49.171 15.02 0.84 0.84 0 0 0 48.606 14.817H46.867A0.83 0.83 0 0 0 46.302 15.02 0.81 0.81 0 0 0 46.14 16.025L47.069 17.425 46.652 22.264 44.181 14.941C42.796 14.941 40.968 15.219 40.275 15.594 39.256 16.145 38.641 17.232 38.641 18.391V31.949A2.92 2.92 0 0 0 40.239 34.552C40.298 34.582 40.335 34.643 40.335 34.709V60.27A2.48 2.48 0 0 0 42.816 62.751H43.169A2.48 2.48 0 0 0 45.635 60.55L46.944 42.865C47.012 42.458 47.351 42.119 47.757 42.119S48.57 42.458 48.57 42.865L50.172 60.61A2.49 2.49 0 0 0 52.633 62.75" fill="#ffffff" data-fill-palette-color="accent"></path></g><path d="M7.172 51.627C7.171 54.563 7.162 57.499 7.172 60.436 7.178 62.05 7.849 62.726 9.446 62.739 11.051 62.753 12.656 62.755 14.261 62.74 15.739 62.726 16.459 62.051 16.463 60.609 16.48 54.541 16.481 42.463 16.469 36.395 16.466 35 15.758 34.295 14.376 34.274A189 189 0 0 0 9.326 34.271C7.875 34.289 7.187 34.984 7.179 36.457 7.163 39.509 7.173 48.573 7.172 51.627" fill="#ffffff" data-fill-palette-color="accent"></path><path d="M23.735 51.627C23.734 54.563 23.725 57.499 23.735 60.436 23.741 62.05 24.412 62.726 26.009 62.739 27.614 62.753 29.219 62.755 30.824 62.74 32.302 62.726 33.022 62.051 33.026 60.609 33.043 54.541 33.044 30.919 33.032 24.851 33.029 23.456 32.321 22.751 30.939 22.73A189 189 0 0 0 25.889 22.727C24.438 22.745 23.75 23.44 23.742 24.913 23.726 27.966 23.736 48.573 23.735 51.627" fill="#ffffff" data-fill-palette-color="accent"></path></g></svg></g></svg></g></svg></g><defs></defs></svg><rect width="395.52" height="80.77830569462468" fill="none" stroke="none" visibility="hidden"></rect></g></svg></g></svg>